<svg width="212" height="210" viewBox="0 0 212 210" fill="none" xmlns="http://www.w3.org/2000/svg">
<rect x="0.5" width="211" height="210" rx="14" fill="#585858"/>
<path d="M121.763 38.7452C98.7376 40.8395 77.282 58.2336 69.4323 66.6688C72.0489 70.4501 79.7241 83.5975 89.4925 105.936C95.1287 99.5618 101.862 94.5794 108.68 90.747C121.276 83.6675 134.161 80.5128 140.951 79.758C140.319 73.4381 137.492 60.985 130.944 50.0892C128.451 45.9406 125.419 42.0178 121.763 38.7452Z" fill="#E73737"/>
<path d="M140.951 79.758C131.939 83.5393 113.565 94.0688 112.169 105.936C126.178 98.0332 148.801 89.3567 164.5 85.8663C156.941 82.3758 141.823 74.5223 141.823 71.0319C141.823 67.5414 147.056 51.5435 149.673 43.9809C143.292 45.4353 130.614 48.693 130.944 50.0892C137.492 60.985 140.319 73.4381 140.951 79.758Z" fill="#E73737"/>
<path d="M112.169 105.936C113.565 94.0688 131.939 83.5393 140.951 79.758C134.161 80.5128 121.276 83.6675 108.68 90.747C108.099 94.9375 107.983 103.842 112.169 105.936Z" fill="#AB1B1B"/>
<path d="M118.274 174L71.1767 61.4331L65.0714 64.0509L108.68 174H118.274Z" fill="#70777D"/>
<path d="M76.4098 50.9618C76.4098 58.6727 70.162 64.9236 62.4549 64.9236C54.7478 64.9236 48.5 58.6727 48.5 50.9618C48.5 43.2509 54.7478 37 62.4549 37C70.162 37 76.4098 43.2509 76.4098 50.9618Z" fill="#70777D"/>
</svg>
