<svg width="78" height="78" viewBox="0 0 78 78" fill="none" xmlns="http://www.w3.org/2000/svg">
<path fill-rule="evenodd" clip-rule="evenodd" d="M39.0001 68.64C57.9545 68.64 73.3201 53.2744 73.3201 34.32C73.3201 15.3656 57.9545 0 39.0001 0C20.0456 0 4.68005 15.3656 4.68005 34.32C4.68005 44.9926 9.55162 54.5274 17.1924 60.822C17.2046 60.832 17.1937 60.8515 17.1788 60.8464C17.1696 60.8433 17.1601 60.8501 17.1601 60.8598V71.5042C17.1601 74.4834 20.3003 76.4171 22.9606 75.076L34.972 69.0212C35.6355 68.6867 36.3787 68.5494 37.1206 68.5894C37.7428 68.623 38.3695 68.64 39.0001 68.64Z" fill="url(#paint0_linear)"/>
<path d="M35.7 41.5426L29.1 34.9426L30.9853 33.0573L35.702 37.7686L35.7 37.7706L47.0133 26.4573L48.8986 28.3426L37.5853 39.6573L35.7013 41.5413L35.7 41.5426Z" fill="white"/>
<defs>
<linearGradient id="paint0_linear" x1="67.2604" y1="5.10388" x2="16.5131" y2="18.3803" gradientUnits="userSpaceOnUse">
<stop stop-color="#09F2C3"/>
<stop offset="1" stop-color="#15DCE4"/>
</linearGradient>
</defs>
</svg>
