<svg width="78" height="78" viewBox="0 0 78 78" fill="none" xmlns="http://www.w3.org/2000/svg">
<path fill-rule="evenodd" clip-rule="evenodd" d="M39.0001 68.64C57.9545 68.64 73.3201 53.2744 73.3201 34.32C73.3201 15.3656 57.9545 0 39.0001 0C20.0456 0 4.68005 15.3656 4.68005 34.32C4.68005 44.9926 9.55162 54.5274 17.1924 60.822C17.2046 60.832 17.1937 60.8515 17.1788 60.8464C17.1696 60.8433 17.1601 60.8501 17.1601 60.8598V71.5042C17.1601 74.4834 20.3003 76.4171 22.9606 75.076L34.972 69.0212C35.6355 68.6867 36.3787 68.5494 37.1206 68.5894C37.7428 68.623 38.3695 68.64 39.0001 68.64Z" fill="#11C3CB"/>
<path d="M39 47.3333C31.6362 47.3333 25.6666 41.3638 25.6666 34C25.6666 26.6362 31.6362 20.6666 39 20.6666C46.3638 20.6666 52.3333 26.6362 52.3333 34C52.3252 41.3604 46.3604 47.3252 39 47.3333ZM39 23.3333C33.1089 23.3333 28.3333 28.1089 28.3333 34C28.3333 39.891 33.1089 44.6666 39 44.6666C44.891 44.6666 49.6666 39.891 49.6666 34C49.66 28.1117 44.8883 23.3399 39 23.3333ZM45.6666 35.3333H37.6666V27.3333H40.3333V32.6666H45.6666V35.3333Z" fill="white"/>
</svg>
